<?xml version="1.0" encoding="iso-8859-1"?>
<!-- Generator: Adobe Illustrator 19.0.0, SVG Export Plug-In . SVG Version: 6.00 Build 0)  -->
<svg version="1.1" id="Layer_1" xmlns="http://www.w3.org/2000/svg" xmlns:xlink="http://www.w3.org/1999/xlink" x="0px" y="0px"
	 viewBox="0 0 512 512" style="enable-background:new 0 0 512 512;" xml:space="preserve">
<rect x="50.772" y="8.017" style="fill:#D5DCED;" width="256.534" height="495.967"/>
<rect x="84.977" y="42.221" style="fill:#C7CFE2;" width="188.125" height="427.557"/>
<path style="fill:#AFB9D2;" d="M240.285,341.511h32.817V170.489h-32.817c-14.935,0-27.041,12.106-27.041,27.041v116.941
	C213.244,329.405,225.351,341.511,240.285,341.511z"/>
<rect x="273.102" y="170.489" style="fill:#C7CFE2;" width="34.204" height="171.023"/>
<path style="fill:#B4E66E;" d="M461.228,256l-102.614-94.063v34.205H247.449c-4.722,0-8.551,3.829-8.551,8.551v102.614
	c0,4.722,3.829,8.551,8.551,8.551h111.165v34.205L461.228,256z"/>
<path style="fill:#A0D755;" d="M367.165,287.885h-94.063c-4.722,0-8.551-3.829-8.551-8.551v-83.192h-17.102
	c-4.722,0-8.551,3.829-8.551,8.551v102.614c0,4.722,3.829,8.551,8.551,8.551h111.165v34.206l25.653-23.517v-21.56
	C384.267,295.542,376.611,287.885,367.165,287.885z"/>
<path d="M307.307,342.048c-4.427,0-8.017,3.589-8.017,8.017v145.902H58.789V16.033H299.29v145.905c0,4.427,3.589,8.017,8.017,8.017
	c4.427,0,8.017-3.589,8.017-8.017V8.017c0-4.427-3.589-8.017-8.017-8.017H50.772c-4.427,0-8.017,3.589-8.017,8.017v495.967
	c0,4.427,3.589,8.017,8.017,8.017h256.534c4.427,0,8.017-3.589,8.017-8.017V350.065
	C315.324,345.637,311.734,342.048,307.307,342.048z"/>
<path d="M466.645,250.09l-102.614-94.063c-2.344-2.148-5.735-2.71-8.645-1.428c-2.911,1.281-4.789,4.159-4.789,7.338v26.188H247.449
	c-9.136,0-16.568,7.432-16.568,16.568v102.614c0,9.136,7.432,16.568,16.568,16.568h103.148v26.188c0,3.179,1.878,6.057,4.789,7.338
	c1.038,0.456,2.136,0.679,3.227,0.679c1.968,0,3.911-0.725,5.418-2.107l102.614-94.063c1.657-1.519,2.6-3.662,2.6-5.91
	C469.244,253.752,468.302,251.609,466.645,250.09z M366.63,331.839v-15.981c0-4.427-3.589-8.017-8.017-8.017H247.449
	c-0.295,0-0.534-0.239-0.534-0.534V204.693c0-0.295,0.239-0.534,0.534-0.534h111.165c4.427,0,8.017-3.589,8.017-8.017v-15.981
	L449.364,256L366.63,331.839z"/>
<path d="M273.102,169.954c4.427,0,8.017-3.589,8.017-8.017V42.221c0-4.427-3.589-8.017-8.017-8.017h-17.1
	c-4.427,0-8.017,3.589-8.017,8.017s3.589,8.017,8.017,8.017h9.083v111.699C265.086,166.365,268.675,169.954,273.102,169.954z"/>
<path d="M221.791,34.205H84.977c-4.427,0-8.017,3.589-8.017,8.017v427.557c0,4.427,3.589,8.017,8.017,8.017h17.1
	c4.427,0,8.017-3.589,8.017-8.017s-3.589-8.017-8.017-8.017h-9.083V50.238h128.797c4.427,0,8.017-3.589,8.017-8.017
	S226.218,34.205,221.791,34.205z"/>
<path d="M128.271,469.779c0,4.427,3.589,8.017,8.017,8.017h136.814c4.427,0,8.017-3.589,8.017-8.017V350.064
	c0-4.427-3.589-8.017-8.017-8.017c-4.427,0-8.017,3.589-8.017,8.017v111.698H136.288
	C131.861,461.762,128.271,465.351,128.271,469.779z"/>
<g>
</g>
<g>
</g>
<g>
</g>
<g>
</g>
<g>
</g>
<g>
</g>
<g>
</g>
<g>
</g>
<g>
</g>
<g>
</g>
<g>
</g>
<g>
</g>
<g>
</g>
<g>
</g>
<g>
</g>
</svg>
